<?xml version="1.0" encoding="UTF-8"?>
<svg width="47px" height="90px" viewBox="0 0 47 90" version="1.1" xmlns="http://www.w3.org/2000/svg" xmlns:xlink="http://www.w3.org/1999/xlink">
    <!-- Generator: Sketch 48.1 (47250) - http://www.bohemiancoding.com/sketch -->
    <title>University Logo</title>
    <desc>Created with Sketch.</desc>
    <defs>
        <linearGradient x1="50%" y1="0%" x2="50%" y2="97.74539%" id="linearGradient-1">
            <stop stop-color="#00A9FF" offset="0%"></stop>
            <stop stop-color="#0144FF" offset="100%"></stop>
        </linearGradient>
    </defs>
    <g id="Landing-Page" stroke="none" stroke-width="1" fill="none" fill-rule="evenodd">
        <g id="University-Logo">
            <g id="Logo-App">
                <polygon id="Fill-10" fill="#0144FF" points="9.15679534 89.4427615 37.6893733 89.4427615 37.6893733 86.9757121 9.15679534 86.9757121"></polygon>
                <polygon id="Fill-12" fill="#0144FF" points="11.2638114 86.0343421 35.6144364 86.0343421 35.6144364 83.8822038 11.2638114 83.8822038"></polygon>
                <polygon id="Fill-5" fill="#0144FF" points="13.7559832 82.7837987 16.8132203 82.7837987 16.8132203 70.5325348 13.7559832 70.5325348"></polygon>
                <polygon id="Fill-6" fill="#0144FF" points="19.1963838 82.7837987 22.2538252 82.7837987 22.2538252 70.5325348 19.1963838 70.5325348"></polygon>
                <polygon id="Fill-7" fill="#0144FF" points="24.6176799 82.7837987 27.6752234 82.7837987 27.6752234 70.5325348 24.6176799 70.5325348"></polygon>
                <polygon id="Fill-8" fill="#0144FF" points="30.219192 82.7835885 33.2765313 82.7835885 33.2765313 70.5325348 30.219192 70.5325348"></polygon>
                <polygon id="Fill-4" fill="#0144FF" points="11.4773328 69.0423827 10.4829773 66.8902444 36.3977225 66.8902444 35.2929285 69.0423827"></polygon>
                <path d="M22.7152969,21.9690485 C22.7152969,27.2984681 22.7469675,34.0996455 22.6791311,39.4292754 C22.6791311,39.4292754 22.1183567,39.6554733 21.8442525,39.8481409 C19.9926447,41.3186373 18.6983377,43.0695687 19.3357346,45.0142187 C19.9030475,46.7602099 21.5845534,47.9275675 23.4246168,47.869021 C25.2874626,47.7991224 26.9008256,46.4125042 27.3294006,44.5145232 C27.7581801,42.604875 26.2640416,40.828612 24.2155651,39.6636719 C24.0586423,39.5773761 23.908973,39.4699532 23.7116957,39.3438205 L23.7116957,0.0435157629 C29.5792411,15.2730868 35.0484517,30.6295262 46.3431165,42.2852338 C34.2019265,59.1631483 33.2831719,60.6803138 32.2167912,65.5241228 L14.3078694,65.5241228 C11.5760225,56.396744 5.34773848,49.5871578 0,42.1894781 C8.08867793,34.3693592 12.5381966,24.2052752 16.8265015,13.9643555 C18.6508318,9.5990097 20.7730702,5.11699123 22.4521242,0.690891569 L22.7152969,0.0545523694 L22.7152969,21.9690485 Z" id="Fill-1" fill="url(#linearGradient-1)"></path>
            </g>
        </g>
    </g>
</svg>